<mxfile host="www.draw.io" modified="2020-03-04T16:06:20.025Z" agent="Mozilla/5.0 (Macintosh; Intel Mac OS X 10_14_6) AppleWebKit/537.36 (KHTML, like Gecko) Chrome/80.0.3987.116 Safari/537.36" etag="MP0sOV0RWPwD83NLTgGy" version="12.7.9" type="github">
  <diagram id="zyz2EFdPTBNVILNC9-8Z" name="Page-1">
    <mxGraphModel dx="1426" dy="741" grid="1" gridSize="10" guides="1" tooltips="1" connect="1" arrows="1" fold="1" page="1" pageScale="1" pageWidth="1169" pageHeight="827" math="0" shadow="0">
      <root>
        <mxCell id="0" />
        <mxCell id="1" parent="0" />
        <mxCell id="aFdUZUaL_gvQUwIEUJne-59" value="VPC" style="outlineConnect=0;gradientColor=none;html=1;whiteSpace=wrap;fontSize=12;fontStyle=0;shape=mxgraph.aws4.group;grIcon=mxgraph.aws4.group_vpc;strokeColor=#879196;fillColor=none;verticalAlign=top;align=left;spacingLeft=30;fontColor=#879196;dashed=0;" vertex="1" parent="1">
          <mxGeometry x="12" y="1241" width="610" height="670" as="geometry" />
        </mxCell>
        <mxCell id="aFdUZUaL_gvQUwIEUJne-60" value="VPC Prod" style="outlineConnect=0;gradientColor=none;html=1;whiteSpace=wrap;fontSize=12;fontStyle=0;shape=mxgraph.aws4.group;grIcon=mxgraph.aws4.group_vpc;strokeColor=#879196;fillColor=none;verticalAlign=top;align=left;spacingLeft=30;fontColor=#879196;dashed=0;" vertex="1" parent="1">
          <mxGeometry x="740" y="390" width="590" height="380" as="geometry" />
        </mxCell>
        <mxCell id="aFdUZUaL_gvQUwIEUJne-7" style="edgeStyle=orthogonalEdgeStyle;rounded=0;orthogonalLoop=1;jettySize=auto;html=1;" edge="1" parent="1" source="aFdUZUaL_gvQUwIEUJne-8" target="aFdUZUaL_gvQUwIEUJne-15">
          <mxGeometry relative="1" as="geometry" />
        </mxCell>
        <mxCell id="aFdUZUaL_gvQUwIEUJne-8" value="" style="outlineConnect=0;fontColor=#232F3E;gradientColor=none;fillColor=#C7131F;strokeColor=none;dashed=0;verticalLabelPosition=bottom;verticalAlign=top;align=center;html=1;fontSize=12;fontStyle=0;aspect=fixed;shape=mxgraph.aws4.endpoint;" vertex="1" parent="1">
          <mxGeometry x="560" y="560" width="50" height="50" as="geometry" />
        </mxCell>
        <mxCell id="aFdUZUaL_gvQUwIEUJne-18" value="" style="edgeStyle=orthogonalEdgeStyle;rounded=0;orthogonalLoop=1;jettySize=auto;html=1;" edge="1" parent="1" source="aFdUZUaL_gvQUwIEUJne-9" target="aFdUZUaL_gvQUwIEUJne-16">
          <mxGeometry relative="1" as="geometry">
            <Array as="points">
              <mxPoint x="200" y="765" />
              <mxPoint x="200" y="765" />
            </Array>
          </mxGeometry>
        </mxCell>
        <mxCell id="aFdUZUaL_gvQUwIEUJne-74" style="edgeStyle=orthogonalEdgeStyle;rounded=0;orthogonalLoop=1;jettySize=auto;html=1;" edge="1" parent="1" source="aFdUZUaL_gvQUwIEUJne-9" target="aFdUZUaL_gvQUwIEUJne-38">
          <mxGeometry relative="1" as="geometry">
            <Array as="points">
              <mxPoint x="246" y="900" />
              <mxPoint x="1160" y="900" />
              <mxPoint x="1160" y="445" />
            </Array>
          </mxGeometry>
        </mxCell>
        <mxCell id="aFdUZUaL_gvQUwIEUJne-75" value="read" style="text;html=1;align=center;verticalAlign=middle;resizable=0;points=[];labelBackgroundColor=#ffffff;" vertex="1" connectable="0" parent="aFdUZUaL_gvQUwIEUJne-74">
          <mxGeometry x="-0.2037" y="1" relative="1" as="geometry">
            <mxPoint as="offset" />
          </mxGeometry>
        </mxCell>
        <mxCell id="aFdUZUaL_gvQUwIEUJne-9" value="EP: CloudAuth" style="outlineConnect=0;fontColor=#232F3E;gradientColor=none;fillColor=#C7131F;strokeColor=none;dashed=0;verticalLabelPosition=bottom;verticalAlign=top;align=center;html=1;fontSize=12;fontStyle=0;aspect=fixed;shape=mxgraph.aws4.endpoint;" vertex="1" parent="1">
          <mxGeometry x="221" y="740" width="50" height="50" as="geometry" />
        </mxCell>
        <mxCell id="aFdUZUaL_gvQUwIEUJne-10" value="EP: PARIS" style="text;html=1;align=center;verticalAlign=bottom;resizable=0;points=[];autosize=1;horizontal=1;" vertex="1" parent="1">
          <mxGeometry x="480" y="570" width="70" height="20" as="geometry" />
        </mxCell>
        <mxCell id="aFdUZUaL_gvQUwIEUJne-11" style="edgeStyle=orthogonalEdgeStyle;rounded=0;orthogonalLoop=1;jettySize=auto;html=1;" edge="1" parent="1" source="aFdUZUaL_gvQUwIEUJne-12" target="aFdUZUaL_gvQUwIEUJne-14">
          <mxGeometry relative="1" as="geometry" />
        </mxCell>
        <mxCell id="aFdUZUaL_gvQUwIEUJne-55" style="edgeStyle=orthogonalEdgeStyle;rounded=0;orthogonalLoop=1;jettySize=auto;html=1;" edge="1" parent="1" source="aFdUZUaL_gvQUwIEUJne-12" target="aFdUZUaL_gvQUwIEUJne-38">
          <mxGeometry relative="1" as="geometry">
            <Array as="points">
              <mxPoint x="405" y="730" />
              <mxPoint x="1071" y="730" />
            </Array>
          </mxGeometry>
        </mxCell>
        <mxCell id="aFdUZUaL_gvQUwIEUJne-56" value="&amp;lt;&amp;lt;service&amp;gt;&amp;gt;&lt;br&gt;Register endpoint" style="text;html=1;align=center;verticalAlign=middle;resizable=0;points=[];labelBackgroundColor=#ffffff;" vertex="1" connectable="0" parent="aFdUZUaL_gvQUwIEUJne-55">
          <mxGeometry x="-0.1721" y="-1" relative="1" as="geometry">
            <mxPoint as="offset" />
          </mxGeometry>
        </mxCell>
        <mxCell id="aFdUZUaL_gvQUwIEUJne-70" style="edgeStyle=orthogonalEdgeStyle;rounded=0;orthogonalLoop=1;jettySize=auto;html=1;entryX=0;entryY=0.75;entryDx=0;entryDy=0;" edge="1" parent="1" source="aFdUZUaL_gvQUwIEUJne-12" target="aFdUZUaL_gvQUwIEUJne-67">
          <mxGeometry relative="1" as="geometry" />
        </mxCell>
        <mxCell id="aFdUZUaL_gvQUwIEUJne-72" value="register" style="text;html=1;align=center;verticalAlign=middle;resizable=0;points=[];labelBackgroundColor=#ffffff;" vertex="1" connectable="0" parent="aFdUZUaL_gvQUwIEUJne-70">
          <mxGeometry x="0.3126" y="-3" relative="1" as="geometry">
            <mxPoint x="-93" y="-18" as="offset" />
          </mxGeometry>
        </mxCell>
        <mxCell id="aFdUZUaL_gvQUwIEUJne-12" value="" style="outlineConnect=0;fontColor=#232F3E;gradientColor=none;fillColor=#0000ff;strokeColor=none;dashed=0;verticalLabelPosition=bottom;verticalAlign=top;align=center;html=1;fontSize=12;fontStyle=0;aspect=fixed;shape=mxgraph.aws4.endpoint;" vertex="1" parent="1">
          <mxGeometry x="380" y="630" width="50" height="50" as="geometry" />
        </mxCell>
        <mxCell id="aFdUZUaL_gvQUwIEUJne-14" value="&lt;span style=&quot;color: rgb(0 , 0 , 0) ; font-family: &amp;#34;arial unicode ms&amp;#34; , &amp;#34;arial&amp;#34; , sans-serif ; font-size: 13px ; text-align: left ; background-color: rgb(234 , 243 , 254)&quot;&gt;isaaschcs-alertisa-g8rmqfxu79.pdx.prod.hex.a2z.com&lt;br&gt;NS, SOA, A, CName&lt;br&gt;&lt;br&gt;&lt;/span&gt;" style="outlineConnect=0;fontColor=#232F3E;gradientColor=none;strokeColor=#232F3E;fillColor=#ffffff;dashed=0;verticalLabelPosition=bottom;verticalAlign=top;align=center;html=1;fontSize=12;fontStyle=0;aspect=fixed;shape=mxgraph.aws4.resourceIcon;resIcon=mxgraph.aws4.hosted_zone;" vertex="1" parent="1">
          <mxGeometry x="199" y="510" width="80" height="80" as="geometry" />
        </mxCell>
        <mxCell id="aFdUZUaL_gvQUwIEUJne-43" style="edgeStyle=orthogonalEdgeStyle;rounded=0;orthogonalLoop=1;jettySize=auto;html=1;entryX=0.2;entryY=0.825;entryDx=0;entryDy=0;entryPerimeter=0;" edge="1" parent="1" source="aFdUZUaL_gvQUwIEUJne-63" target="aFdUZUaL_gvQUwIEUJne-38">
          <mxGeometry relative="1" as="geometry" />
        </mxCell>
        <mxCell id="aFdUZUaL_gvQUwIEUJne-48" value="trust" style="text;html=1;align=center;verticalAlign=middle;resizable=0;points=[];labelBackgroundColor=#ffffff;" vertex="1" connectable="0" parent="aFdUZUaL_gvQUwIEUJne-43">
          <mxGeometry x="-0.3255" y="-1" relative="1" as="geometry">
            <mxPoint y="14" as="offset" />
          </mxGeometry>
        </mxCell>
        <mxCell id="aFdUZUaL_gvQUwIEUJne-15" value="&lt;span style=&quot;color: rgb(0 , 0 , 0) ; font-family: &amp;#34;arial unicode ms&amp;#34; , &amp;#34;arial&amp;#34; , sans-serif ; font-size: 13px ; text-align: left ; background-color: rgb(234 , 243 , 254)&quot;&gt;fe-paris-tcp.pdex.amazon.com&lt;br&gt;NS, SOA, A&lt;br&gt;&lt;br&gt;&lt;/span&gt;" style="outlineConnect=0;fontColor=#232F3E;gradientColor=none;strokeColor=#232F3E;fillColor=#ffffff;dashed=0;verticalLabelPosition=bottom;verticalAlign=top;align=center;html=1;fontSize=12;fontStyle=0;aspect=fixed;shape=mxgraph.aws4.resourceIcon;resIcon=mxgraph.aws4.hosted_zone;" vertex="1" parent="1">
          <mxGeometry x="547" y="400" width="75" height="75" as="geometry" />
        </mxCell>
        <mxCell id="aFdUZUaL_gvQUwIEUJne-16" value="&lt;span style=&quot;color: rgb(0 , 0 , 0) ; font-family: &amp;#34;arial unicode ms&amp;#34; , &amp;#34;arial&amp;#34; , sans-serif ; font-size: 13px ; text-align: left ; background-color: rgb(234 , 243 , 254)&quot;&gt;cloudauth.a2z.com&lt;br&gt;NS, SOA, &lt;br&gt;CName: gateway, &lt;br&gt;CName: oauth&lt;br&gt;&lt;br&gt;&lt;/span&gt;" style="outlineConnect=0;fontColor=#232F3E;gradientColor=none;strokeColor=#232F3E;fillColor=#ffffff;dashed=0;verticalLabelPosition=bottom;verticalAlign=top;align=center;html=1;fontSize=12;fontStyle=0;aspect=fixed;shape=mxgraph.aws4.resourceIcon;resIcon=mxgraph.aws4.hosted_zone;" vertex="1" parent="1">
          <mxGeometry x="70" y="725" width="80" height="80" as="geometry" />
        </mxCell>
        <mxCell id="aFdUZUaL_gvQUwIEUJne-19" value="EPS: ISAAlertSCHomepageCard" style="text;html=1;align=center;verticalAlign=middle;resizable=0;points=[];autosize=1;" vertex="1" parent="1">
          <mxGeometry x="330" y="690" width="190" height="20" as="geometry" />
        </mxCell>
        <mxCell id="aFdUZUaL_gvQUwIEUJne-21" value="" style="shape=image;html=1;verticalAlign=top;verticalLabelPosition=bottom;labelBackgroundColor=#ffffff;imageAspect=0;aspect=fixed;image=https://cdn2.iconfinder.com/data/icons/amazon-aws-stencils/100/Database_copy_DynamoDB-128.png" vertex="1" parent="1">
          <mxGeometry x="199" y="150" width="94" height="94" as="geometry" />
        </mxCell>
        <mxCell id="aFdUZUaL_gvQUwIEUJne-22" value="" style="outlineConnect=0;fontColor=#232F3E;gradientColor=#F78E04;gradientDirection=north;fillColor=#D05C17;strokeColor=#ffffff;dashed=0;verticalLabelPosition=bottom;verticalAlign=top;align=center;html=1;fontSize=12;fontStyle=0;aspect=fixed;shape=mxgraph.aws4.resourceIcon;resIcon=mxgraph.aws4.ecs;" vertex="1" parent="1">
          <mxGeometry x="215" y="338" width="62" height="62" as="geometry" />
        </mxCell>
        <mxCell id="aFdUZUaL_gvQUwIEUJne-24" value="" style="outlineConnect=0;fontColor=#232F3E;gradientColor=none;fillColor=#277116;strokeColor=none;dashed=0;verticalLabelPosition=bottom;verticalAlign=top;align=center;html=1;fontSize=12;fontStyle=0;aspect=fixed;pointerEvents=1;shape=mxgraph.aws4.bucket_with_objects;" vertex="1" parent="1">
          <mxGeometry x="233" y="65.6" width="60" height="62.4" as="geometry" />
        </mxCell>
        <mxCell id="aFdUZUaL_gvQUwIEUJne-28" style="edgeStyle=orthogonalEdgeStyle;rounded=0;orthogonalLoop=1;jettySize=auto;html=1;" edge="1" parent="1" source="aFdUZUaL_gvQUwIEUJne-27" target="aFdUZUaL_gvQUwIEUJne-22">
          <mxGeometry relative="1" as="geometry">
            <Array as="points">
              <mxPoint x="310" y="369" />
              <mxPoint x="310" y="369" />
            </Array>
          </mxGeometry>
        </mxCell>
        <mxCell id="aFdUZUaL_gvQUwIEUJne-54" value="host on" style="text;html=1;align=center;verticalAlign=middle;resizable=0;points=[];labelBackgroundColor=#ffffff;" vertex="1" connectable="0" parent="aFdUZUaL_gvQUwIEUJne-28">
          <mxGeometry x="0.548" y="1" relative="1" as="geometry">
            <mxPoint x="8" y="-17.5" as="offset" />
          </mxGeometry>
        </mxCell>
        <mxCell id="aFdUZUaL_gvQUwIEUJne-35" style="edgeStyle=orthogonalEdgeStyle;rounded=0;orthogonalLoop=1;jettySize=auto;html=1;" edge="1" parent="1" source="aFdUZUaL_gvQUwIEUJne-27" target="aFdUZUaL_gvQUwIEUJne-21">
          <mxGeometry relative="1" as="geometry">
            <Array as="points">
              <mxPoint x="400" y="200" />
            </Array>
          </mxGeometry>
        </mxCell>
        <mxCell id="aFdUZUaL_gvQUwIEUJne-36" style="edgeStyle=orthogonalEdgeStyle;rounded=0;orthogonalLoop=1;jettySize=auto;html=1;" edge="1" parent="1" source="aFdUZUaL_gvQUwIEUJne-27" target="aFdUZUaL_gvQUwIEUJne-24">
          <mxGeometry relative="1" as="geometry">
            <Array as="points">
              <mxPoint x="400" y="128" />
            </Array>
          </mxGeometry>
        </mxCell>
        <mxCell id="aFdUZUaL_gvQUwIEUJne-37" style="edgeStyle=orthogonalEdgeStyle;rounded=0;orthogonalLoop=1;jettySize=auto;html=1;" edge="1" parent="1" source="aFdUZUaL_gvQUwIEUJne-27" target="aFdUZUaL_gvQUwIEUJne-12">
          <mxGeometry relative="1" as="geometry" />
        </mxCell>
        <mxCell id="aFdUZUaL_gvQUwIEUJne-58" value="expose" style="text;html=1;align=center;verticalAlign=middle;resizable=0;points=[];labelBackgroundColor=#ffffff;" vertex="1" connectable="0" parent="aFdUZUaL_gvQUwIEUJne-37">
          <mxGeometry x="0.1656" y="2" relative="1" as="geometry">
            <mxPoint as="offset" />
          </mxGeometry>
        </mxCell>
        <mxCell id="aFdUZUaL_gvQUwIEUJne-27" value="" style="shape=image;html=1;verticalAlign=top;verticalLabelPosition=bottom;labelBackgroundColor=#ffffff;imageAspect=0;aspect=fixed;image=https://cdn1.iconfinder.com/data/icons/file-extension-vol-1/48/Class_program_programming_file_extension-128.png" vertex="1" parent="1">
          <mxGeometry x="375" y="340" width="60" height="60" as="geometry" />
        </mxCell>
        <mxCell id="aFdUZUaL_gvQUwIEUJne-30" style="edgeStyle=orthogonalEdgeStyle;rounded=0;orthogonalLoop=1;jettySize=auto;html=1;entryX=1;entryY=0.25;entryDx=0;entryDy=0;" edge="1" parent="1" source="aFdUZUaL_gvQUwIEUJne-29" target="aFdUZUaL_gvQUwIEUJne-27">
          <mxGeometry relative="1" as="geometry" />
        </mxCell>
        <mxCell id="aFdUZUaL_gvQUwIEUJne-52" value="run as" style="text;html=1;align=center;verticalAlign=middle;resizable=0;points=[];labelBackgroundColor=#ffffff;" vertex="1" connectable="0" parent="aFdUZUaL_gvQUwIEUJne-30">
          <mxGeometry x="0.0292" relative="1" as="geometry">
            <mxPoint as="offset" />
          </mxGeometry>
        </mxCell>
        <mxCell id="aFdUZUaL_gvQUwIEUJne-53" value="&amp;lt;&amp;lt;application&amp;gt;&amp;gt;&lt;br&gt;register role" style="edgeStyle=orthogonalEdgeStyle;rounded=0;orthogonalLoop=1;jettySize=auto;html=1;entryX=0.5;entryY=0;entryDx=0;entryDy=0;entryPerimeter=0;" edge="1" parent="1" source="aFdUZUaL_gvQUwIEUJne-29" target="aFdUZUaL_gvQUwIEUJne-38">
          <mxGeometry relative="1" as="geometry">
            <Array as="points">
              <mxPoint x="619" y="180" />
              <mxPoint x="1071" y="180" />
            </Array>
          </mxGeometry>
        </mxCell>
        <mxCell id="aFdUZUaL_gvQUwIEUJne-29" value="" style="outlineConnect=0;fontColor=#232F3E;gradientColor=none;fillColor=#C7131F;strokeColor=none;dashed=0;verticalLabelPosition=bottom;verticalAlign=top;align=center;html=1;fontSize=12;fontStyle=0;aspect=fixed;pointerEvents=1;shape=mxgraph.aws4.role;" vertex="1" parent="1">
          <mxGeometry x="580" y="244" width="78" height="44" as="geometry" />
        </mxCell>
        <mxCell id="aFdUZUaL_gvQUwIEUJne-51" value="manage" style="edgeStyle=orthogonalEdgeStyle;rounded=0;orthogonalLoop=1;jettySize=auto;html=1;" edge="1" parent="1" source="aFdUZUaL_gvQUwIEUJne-31" target="aFdUZUaL_gvQUwIEUJne-29">
          <mxGeometry relative="1" as="geometry" />
        </mxCell>
        <mxCell id="aFdUZUaL_gvQUwIEUJne-31" value="IAM" style="outlineConnect=0;dashed=0;verticalLabelPosition=bottom;verticalAlign=top;align=center;html=1;shape=mxgraph.aws3.certificate_manager_2;fillColor=#759C3E;gradientColor=none;" vertex="1" parent="1">
          <mxGeometry x="755" y="234.5" width="73.5" height="63" as="geometry" />
        </mxCell>
        <mxCell id="aFdUZUaL_gvQUwIEUJne-34" value="" style="endArrow=classic;html=1;exitX=1.017;exitY=0.867;exitDx=0;exitDy=0;exitPerimeter=0;" edge="1" parent="1" source="aFdUZUaL_gvQUwIEUJne-27" target="aFdUZUaL_gvQUwIEUJne-15">
          <mxGeometry width="50" height="50" relative="1" as="geometry">
            <mxPoint x="560" y="210" as="sourcePoint" />
            <mxPoint x="610" y="160" as="targetPoint" />
          </mxGeometry>
        </mxCell>
        <mxCell id="aFdUZUaL_gvQUwIEUJne-42" style="edgeStyle=orthogonalEdgeStyle;rounded=0;orthogonalLoop=1;jettySize=auto;html=1;entryX=1;entryY=0.5;entryDx=0;entryDy=0;entryPerimeter=0;" edge="1" parent="1" source="aFdUZUaL_gvQUwIEUJne-38" target="aFdUZUaL_gvQUwIEUJne-31">
          <mxGeometry relative="1" as="geometry" />
        </mxCell>
        <mxCell id="aFdUZUaL_gvQUwIEUJne-49" value="delegate" style="text;html=1;align=center;verticalAlign=middle;resizable=0;points=[];labelBackgroundColor=#ffffff;" vertex="1" connectable="0" parent="aFdUZUaL_gvQUwIEUJne-42">
          <mxGeometry x="0.0073" relative="1" as="geometry">
            <mxPoint y="1" as="offset" />
          </mxGeometry>
        </mxCell>
        <mxCell id="aFdUZUaL_gvQUwIEUJne-38" value="AAA" style="outlineConnect=0;dashed=0;verticalLabelPosition=bottom;verticalAlign=top;align=center;html=1;shape=mxgraph.aws3.clouddirectory;fillColor=#759C3E;gradientColor=none;" vertex="1" parent="1">
          <mxGeometry x="1020" y="390" width="102" height="109.5" as="geometry" />
        </mxCell>
        <mxCell id="aFdUZUaL_gvQUwIEUJne-65" style="edgeStyle=orthogonalEdgeStyle;rounded=0;orthogonalLoop=1;jettySize=auto;html=1;exitX=0;exitY=0.5;exitDx=0;exitDy=0;" edge="1" parent="1" source="aFdUZUaL_gvQUwIEUJne-67" target="aFdUZUaL_gvQUwIEUJne-8">
          <mxGeometry relative="1" as="geometry">
            <mxPoint x="760" y="630" as="sourcePoint" />
          </mxGeometry>
        </mxCell>
        <mxCell id="aFdUZUaL_gvQUwIEUJne-66" value="private link" style="text;html=1;align=center;verticalAlign=middle;resizable=0;points=[];labelBackgroundColor=#ffffff;" vertex="1" connectable="0" parent="aFdUZUaL_gvQUwIEUJne-65">
          <mxGeometry x="0.1077" y="-4" relative="1" as="geometry">
            <mxPoint x="1" y="-6" as="offset" />
          </mxGeometry>
        </mxCell>
        <mxCell id="aFdUZUaL_gvQUwIEUJne-68" style="edgeStyle=orthogonalEdgeStyle;rounded=0;orthogonalLoop=1;jettySize=auto;html=1;entryX=1;entryY=0.5;entryDx=0;entryDy=0;" edge="1" parent="1" source="aFdUZUaL_gvQUwIEUJne-63" target="aFdUZUaL_gvQUwIEUJne-67">
          <mxGeometry relative="1" as="geometry" />
        </mxCell>
        <mxCell id="aFdUZUaL_gvQUwIEUJne-69" value="register" style="text;html=1;align=center;verticalAlign=middle;resizable=0;points=[];labelBackgroundColor=#ffffff;" vertex="1" connectable="0" parent="aFdUZUaL_gvQUwIEUJne-68">
          <mxGeometry x="-0.3143" y="4" relative="1" as="geometry">
            <mxPoint x="-6" y="11" as="offset" />
          </mxGeometry>
        </mxCell>
        <mxCell id="aFdUZUaL_gvQUwIEUJne-63" value="" style="shape=image;html=1;verticalAlign=top;verticalLabelPosition=bottom;labelBackgroundColor=#ffffff;imageAspect=0;aspect=fixed;image=https://cdn1.iconfinder.com/data/icons/file-extension-vol-1/48/Class_program_programming_file_extension-128.png" vertex="1" parent="1">
          <mxGeometry x="840" y="550" width="70" height="70" as="geometry" />
        </mxCell>
        <mxCell id="aFdUZUaL_gvQUwIEUJne-67" value="Allegiance" style="aspect=fixed;perimeter=ellipsePerimeter;html=1;align=center;shadow=0;dashed=0;fontColor=#4277BB;labelBackgroundColor=#ffffff;fontSize=12;spacingTop=3;image;image=img/lib/ibm/vpc/Bridge.svg;" vertex="1" parent="1">
          <mxGeometry x="710" y="555" width="60" height="60" as="geometry" />
        </mxCell>
        <mxCell id="aFdUZUaL_gvQUwIEUJne-73" value="" style="endArrow=classic;html=1;" edge="1" parent="1" source="aFdUZUaL_gvQUwIEUJne-27" target="aFdUZUaL_gvQUwIEUJne-16">
          <mxGeometry width="50" height="50" relative="1" as="geometry">
            <mxPoint x="420" y="640" as="sourcePoint" />
            <mxPoint x="470" y="590" as="targetPoint" />
            <Array as="points">
              <mxPoint x="40" y="510" />
            </Array>
          </mxGeometry>
        </mxCell>
      </root>
    </mxGraphModel>
  </diagram>
</mxfile>
